<?xml version="1.0" encoding="UTF-8" standalone="no"?><svg xmlns="http://www.w3.org/2000/svg" xmlns:xlink="http://www.w3.org/1999/xlink" contentScriptType="application/ecmascript" contentStyleType="text/css" height="616px" preserveAspectRatio="none" style="width:868px;height:616px;" version="1.1" viewBox="0 0 868 616" width="868px" zoomAndPan="magnify"><defs><filter height="300%" id="f1o5cv18rk5z75" width="300%" x="-1" y="-1"><feGaussianBlur result="blurOut" stdDeviation="2.0"/><feColorMatrix in="blurOut" result="blurOut2" type="matrix" values="0 0 0 0 0 0 0 0 0 0 0 0 0 0 0 0 0 0 .4 0"/><feOffset dx="4.0" dy="4.0" in="blurOut2" result="blurOut3"/><feBlend in="SourceGraphic" in2="blurOut3" mode="normal"/></filter></defs><g><!--class SecHubReportData--><rect fill="#FEFECE" filter="url(#f1o5cv18rk5z75)" height="48" id="SecHubReportData" style="stroke: #A80036; stroke-width: 1.5;" width="152" x="463" y="242"/><ellipse cx="478" cy="258" fill="#B4A7E5" rx="11" ry="11" style="stroke: #A80036; stroke-width: 1.0;"/><path d="M473.9219,253.7656 L473.9219,251.6094 L481.3125,251.6094 L481.3125,253.7656 L478.8438,253.7656 L478.8438,261.8438 L481.3125,261.8438 L481.3125,264 L473.9219,264 L473.9219,261.8438 L476.3906,261.8438 L476.3906,253.7656 L473.9219,253.7656 Z "/><text fill="#000000" font-family="sans-serif" font-size="12" font-style="italic" lengthAdjust="spacingAndGlyphs" textLength="120" x="492" y="262.1543">SecHubReportData</text><line style="stroke: #A80036; stroke-width: 1.5;" x1="464" x2="614" y1="274" y2="274"/><line style="stroke: #A80036; stroke-width: 1.5;" x1="464" x2="614" y1="282" y2="282"/><!--class SecHubReportModel--><rect fill="#FEFECE" filter="url(#f1o5cv18rk5z75)" height="48" id="SecHubReportModel" style="stroke: #A80036; stroke-width: 1.5;" width="159" x="455.5" y="436"/><ellipse cx="470.5" cy="452" fill="#ADD1B2" rx="11" ry="11" style="stroke: #A80036; stroke-width: 1.0;"/><path d="M473.4688,457.6406 Q472.8906,457.9375 472.25,458.0781 Q471.6094,458.2344 470.9063,458.2344 Q468.4063,458.2344 467.0781,456.5938 Q465.7656,454.9375 465.7656,451.8125 Q465.7656,448.6875 467.0781,447.0313 Q468.4063,445.375 470.9063,445.375 Q471.6094,445.375 472.25,445.5313 Q472.9063,445.6875 473.4688,445.9844 L473.4688,448.7031 Q472.8438,448.125 472.25,447.8594 Q471.6563,447.5781 471.0313,447.5781 Q469.6875,447.5781 469,448.6563 Q468.3125,449.7188 468.3125,451.8125 Q468.3125,453.9063 469,454.9844 Q469.6875,456.0469 471.0313,456.0469 Q471.6563,456.0469 472.25,455.7813 Q472.8438,455.5 473.4688,454.9219 L473.4688,457.6406 Z "/><text fill="#000000" font-family="sans-serif" font-size="12" lengthAdjust="spacingAndGlyphs" textLength="127" x="484.5" y="456.1543">SecHubReportModel</text><line style="stroke: #A80036; stroke-width: 1.5;" x1="456.5" x2="613.5" y1="468" y2="468"/><line style="stroke: #A80036; stroke-width: 1.5;" x1="456.5" x2="613.5" y1="476" y2="476"/><!--class ReportTransformationResult--><rect fill="#FEFECE" filter="url(#f1o5cv18rk5z75)" height="48" id="ReportTransformationResult" style="stroke: #A80036; stroke-width: 1.5;" width="208" x="549" y="551.5"/><ellipse cx="564" cy="567.5" fill="#ADD1B2" rx="11" ry="11" style="stroke: #A80036; stroke-width: 1.0;"/><path d="M566.9688,573.1406 Q566.3906,573.4375 565.75,573.5781 Q565.1094,573.7344 564.4063,573.7344 Q561.9063,573.7344 560.5781,572.0938 Q559.2656,570.4375 559.2656,567.3125 Q559.2656,564.1875 560.5781,562.5313 Q561.9063,560.875 564.4063,560.875 Q565.1094,560.875 565.75,561.0313 Q566.4063,561.1875 566.9688,561.4844 L566.9688,564.2031 Q566.3438,563.625 565.75,563.3594 Q565.1563,563.0781 564.5313,563.0781 Q563.1875,563.0781 562.5,564.1563 Q561.8125,565.2188 561.8125,567.3125 Q561.8125,569.4063 562.5,570.4844 Q563.1875,571.5469 564.5313,571.5469 Q565.1563,571.5469 565.75,571.2813 Q566.3438,571 566.9688,570.4219 L566.9688,573.1406 Z "/><text fill="#000000" font-family="sans-serif" font-size="12" lengthAdjust="spacingAndGlyphs" textLength="176" x="578" y="571.6543">ReportTransformationResult</text><line style="stroke: #A80036; stroke-width: 1.5;" x1="550" x2="756" y1="583.5" y2="583.5"/><line style="stroke: #A80036; stroke-width: 1.5;" x1="550" x2="756" y1="591.5" y2="591.5"/><!--class SerecoProductExecutor--><rect fill="#FEFECE" filter="url(#f1o5cv18rk5z75)" height="48" id="SerecoProductExecutor" style="stroke: #A80036; stroke-width: 1.5;" width="180" x="6" y="339"/><ellipse cx="21" cy="355" fill="#ADD1B2" rx="11" ry="11" style="stroke: #A80036; stroke-width: 1.0;"/><path d="M23.9688,360.6406 Q23.3906,360.9375 22.75,361.0781 Q22.1094,361.2344 21.4063,361.2344 Q18.9063,361.2344 17.5781,359.5938 Q16.2656,357.9375 16.2656,354.8125 Q16.2656,351.6875 17.5781,350.0313 Q18.9063,348.375 21.4063,348.375 Q22.1094,348.375 22.75,348.5313 Q23.4063,348.6875 23.9688,348.9844 L23.9688,351.7031 Q23.3438,351.125 22.75,350.8594 Q22.1563,350.5781 21.5313,350.5781 Q20.1875,350.5781 19.5,351.6563 Q18.8125,352.7188 18.8125,354.8125 Q18.8125,356.9063 19.5,357.9844 Q20.1875,359.0469 21.5313,359.0469 Q22.1563,359.0469 22.75,358.7813 Q23.3438,358.5 23.9688,357.9219 L23.9688,360.6406 Z "/><text fill="#000000" font-family="sans-serif" font-size="12" lengthAdjust="spacingAndGlyphs" textLength="148" x="35" y="359.1543">SerecoProductExecutor</text><line style="stroke: #A80036; stroke-width: 1.5;" x1="7" x2="185" y1="371" y2="371"/><line style="stroke: #A80036; stroke-width: 1.5;" x1="7" x2="185" y1="379" y2="379"/><!--class ScanService--><rect fill="#FEFECE" filter="url(#f1o5cv18rk5z75)" height="48" id="ScanService" style="stroke: #A80036; stroke-width: 1.5;" width="108" x="517" y="8"/><ellipse cx="532" cy="24" fill="#ADD1B2" rx="11" ry="11" style="stroke: #A80036; stroke-width: 1.0;"/><path d="M534.9688,29.6406 Q534.3906,29.9375 533.75,30.0781 Q533.1094,30.2344 532.4063,30.2344 Q529.9063,30.2344 528.5781,28.5938 Q527.2656,26.9375 527.2656,23.8125 Q527.2656,20.6875 528.5781,19.0313 Q529.9063,17.375 532.4063,17.375 Q533.1094,17.375 533.75,17.5313 Q534.4063,17.6875 534.9688,17.9844 L534.9688,20.7031 Q534.3438,20.125 533.75,19.8594 Q533.1563,19.5781 532.5313,19.5781 Q531.1875,19.5781 530.5,20.6563 Q529.8125,21.7188 529.8125,23.8125 Q529.8125,25.9063 530.5,26.9844 Q531.1875,28.0469 532.5313,28.0469 Q533.1563,28.0469 533.75,27.7813 Q534.3438,27.5 534.9688,26.9219 L534.9688,29.6406 Z "/><text fill="#000000" font-family="sans-serif" font-size="12" lengthAdjust="spacingAndGlyphs" textLength="76" x="546" y="28.1543">ScanService</text><line style="stroke: #A80036; stroke-width: 1.5;" x1="518" x2="624" y1="40" y2="40"/><line style="stroke: #A80036; stroke-width: 1.5;" x1="518" x2="624" y1="48" y2="48"/><!--class ProductResult--><rect fill="#FEFECE" filter="url(#f1o5cv18rk5z75)" height="60.8047" id="ProductResult" style="stroke: #A80036; stroke-width: 1.5;" width="147" x="49.5" y="545"/><ellipse cx="76.65" cy="561" fill="#ADD1B2" rx="11" ry="11" style="stroke: #A80036; stroke-width: 1.0;"/><path d="M79.6188,566.6406 Q79.0406,566.9375 78.4,567.0781 Q77.7594,567.2344 77.0563,567.2344 Q74.5563,567.2344 73.2281,565.5938 Q71.9156,563.9375 71.9156,560.8125 Q71.9156,557.6875 73.2281,556.0313 Q74.5563,554.375 77.0563,554.375 Q77.7594,554.375 78.4,554.5313 Q79.0563,554.6875 79.6188,554.9844 L79.6188,557.7031 Q78.9938,557.125 78.4,556.8594 Q77.8063,556.5781 77.1813,556.5781 Q75.8375,556.5781 75.15,557.6563 Q74.4625,558.7188 74.4625,560.8125 Q74.4625,562.9063 75.15,563.9844 Q75.8375,565.0469 77.1813,565.0469 Q77.8063,565.0469 78.4,564.7813 Q78.9938,564.5 79.6188,563.9219 L79.6188,566.6406 Z "/><text fill="#000000" font-family="sans-serif" font-size="12" lengthAdjust="spacingAndGlyphs" textLength="88" x="93.35" y="565.1543">ProductResult</text><line style="stroke: #A80036; stroke-width: 1.5;" x1="50.5" x2="195.5" y1="577" y2="577"/><text fill="#000000" font-family="sans-serif" font-size="11" lengthAdjust="spacingAndGlyphs" textLength="135" x="55.5" y="591.2104">String: productIdentifier</text><line style="stroke: #A80036; stroke-width: 1.5;" x1="50.5" x2="195.5" y1="597.8047" y2="597.8047"/><!--class SerecoResultTransformer--><rect fill="#FEFECE" filter="url(#f1o5cv18rk5z75)" height="48" id="SerecoResultTransformer" style="stroke: #A80036; stroke-width: 1.5;" width="191" x="186.5" y="436"/><ellipse cx="201.5" cy="452" fill="#ADD1B2" rx="11" ry="11" style="stroke: #A80036; stroke-width: 1.0;"/><path d="M204.4688,457.6406 Q203.8906,457.9375 203.25,458.0781 Q202.6094,458.2344 201.9063,458.2344 Q199.4063,458.2344 198.0781,456.5938 Q196.7656,454.9375 196.7656,451.8125 Q196.7656,448.6875 198.0781,447.0313 Q199.4063,445.375 201.9063,445.375 Q202.6094,445.375 203.25,445.5313 Q203.9063,445.6875 204.4688,445.9844 L204.4688,448.7031 Q203.8438,448.125 203.25,447.8594 Q202.6563,447.5781 202.0313,447.5781 Q200.6875,447.5781 200,448.6563 Q199.3125,449.7188 199.3125,451.8125 Q199.3125,453.9063 200,454.9844 Q200.6875,456.0469 202.0313,456.0469 Q202.6563,456.0469 203.25,455.7813 Q203.8438,455.5 204.4688,454.9219 L204.4688,457.6406 Z "/><text fill="#000000" font-family="sans-serif" font-size="12" lengthAdjust="spacingAndGlyphs" textLength="159" x="215.5" y="456.1543">SerecoResultTransformer</text><line style="stroke: #A80036; stroke-width: 1.5;" x1="187.5" x2="376.5" y1="468" y2="468"/><line style="stroke: #A80036; stroke-width: 1.5;" x1="187.5" x2="376.5" y1="476" y2="476"/><!--class CreateScanReportService--><rect fill="#FEFECE" filter="url(#f1o5cv18rk5z75)" height="48" id="CreateScanReportService" style="stroke: #A80036; stroke-width: 1.5;" width="192" x="475" y="117"/><ellipse cx="490" cy="133" fill="#ADD1B2" rx="11" ry="11" style="stroke: #A80036; stroke-width: 1.0;"/><path d="M492.9688,138.6406 Q492.3906,138.9375 491.75,139.0781 Q491.1094,139.2344 490.4063,139.2344 Q487.9063,139.2344 486.5781,137.5938 Q485.2656,135.9375 485.2656,132.8125 Q485.2656,129.6875 486.5781,128.0313 Q487.9063,126.375 490.4063,126.375 Q491.1094,126.375 491.75,126.5313 Q492.4063,126.6875 492.9688,126.9844 L492.9688,129.7031 Q492.3438,129.125 491.75,128.8594 Q491.1563,128.5781 490.5313,128.5781 Q489.1875,128.5781 488.5,129.6563 Q487.8125,130.7188 487.8125,132.8125 Q487.8125,134.9063 488.5,135.9844 Q489.1875,137.0469 490.5313,137.0469 Q491.1563,137.0469 491.75,136.7813 Q492.3438,136.5 492.9688,135.9219 L492.9688,138.6406 Z "/><text fill="#000000" font-family="sans-serif" font-size="12" lengthAdjust="spacingAndGlyphs" textLength="160" x="504" y="137.1543">CreateScanReportService</text><line style="stroke: #A80036; stroke-width: 1.5;" x1="476" x2="666" y1="149" y2="149"/><line style="stroke: #A80036; stroke-width: 1.5;" x1="476" x2="666" y1="157" y2="157"/><!--class ScanReport--><rect fill="#FEFECE" filter="url(#f1o5cv18rk5z75)" height="86.4141" id="ScanReport" style="stroke: #A80036; stroke-width: 1.5;" width="167" x="690.5" y="320"/><ellipse cx="733.4" cy="336" fill="#ADD1B2" rx="11" ry="11" style="stroke: #A80036; stroke-width: 1.0;"/><path d="M736.3688,341.6406 Q735.7906,341.9375 735.15,342.0781 Q734.5094,342.2344 733.8063,342.2344 Q731.3063,342.2344 729.9781,340.5938 Q728.6656,338.9375 728.6656,335.8125 Q728.6656,332.6875 729.9781,331.0313 Q731.3063,329.375 733.8063,329.375 Q734.5094,329.375 735.15,329.5313 Q735.8063,329.6875 736.3688,329.9844 L736.3688,332.7031 Q735.7438,332.125 735.15,331.8594 Q734.5563,331.5781 733.9313,331.5781 Q732.5875,331.5781 731.9,332.6563 Q731.2125,333.7188 731.2125,335.8125 Q731.2125,337.9063 731.9,338.9844 Q732.5875,340.0469 733.9313,340.0469 Q734.5563,340.0469 735.15,339.7813 Q735.7438,339.5 736.3688,338.9219 L736.3688,341.6406 Z "/><text fill="#000000" font-family="sans-serif" font-size="12" lengthAdjust="spacingAndGlyphs" textLength="73" x="753.6" y="340.1543">ScanReport</text><line style="stroke: #A80036; stroke-width: 1.5;" x1="691.5" x2="856.5" y1="352" y2="352"/><text fill="#000000" font-family="sans-serif" font-size="11" lengthAdjust="spacingAndGlyphs" textLength="45" x="696.5" y="366.2104">«Entity»</text><text fill="#000000" font-family="sans-serif" font-size="11" lengthAdjust="spacingAndGlyphs" textLength="71" x="696.5" y="379.0151">String result</text><text fill="#000000" font-family="sans-serif" font-size="11" lengthAdjust="spacingAndGlyphs" textLength="155" x="696.5" y="391.8198">ScanReportResultType type</text><line style="stroke: #A80036; stroke-width: 1.5;" x1="691.5" x2="856.5" y1="398.4141" y2="398.4141"/><!--class SecHubReportProductTransformerService--><rect fill="#FEFECE" filter="url(#f1o5cv18rk5z75)" height="48" id="SecHubReportProductTransformerService" style="stroke: #A80036; stroke-width: 1.5;" width="292" x="136" y="242"/><ellipse cx="151" cy="258" fill="#ADD1B2" rx="11" ry="11" style="stroke: #A80036; stroke-width: 1.0;"/><path d="M153.9688,263.6406 Q153.3906,263.9375 152.75,264.0781 Q152.1094,264.2344 151.4063,264.2344 Q148.9063,264.2344 147.5781,262.5938 Q146.2656,260.9375 146.2656,257.8125 Q146.2656,254.6875 147.5781,253.0313 Q148.9063,251.375 151.4063,251.375 Q152.1094,251.375 152.75,251.5313 Q153.4063,251.6875 153.9688,251.9844 L153.9688,254.7031 Q153.3438,254.125 152.75,253.8594 Q152.1563,253.5781 151.5313,253.5781 Q150.1875,253.5781 149.5,254.6563 Q148.8125,255.7188 148.8125,257.8125 Q148.8125,259.9063 149.5,260.9844 Q150.1875,262.0469 151.5313,262.0469 Q152.1563,262.0469 152.75,261.7813 Q153.3438,261.5 153.9688,260.9219 L153.9688,263.6406 Z "/><text fill="#000000" font-family="sans-serif" font-size="12" lengthAdjust="spacingAndGlyphs" textLength="260" x="165" y="262.1543">SecHubReportProductTransformerService</text><line style="stroke: #A80036; stroke-width: 1.5;" x1="137" x2="427" y1="274" y2="274"/><line style="stroke: #A80036; stroke-width: 1.5;" x1="137" x2="427" y1="282" y2="282"/><path d="M292,555.5 L292,595.7656 L484,595.7656 L484,565.5 L474,555.5 L292,555.5 " fill="#6495ED" filter="url(#f1o5cv18rk5z75)" style="stroke: #A80036; stroke-width: 1.0;"/><path d="M474,555.5 L474,565.5 L484,565.5 L474,555.5 " fill="#6495ED" style="stroke: #A80036; stroke-width: 1.0;"/><text fill="#000000" font-family="sans-serif" font-size="13" lengthAdjust="spacingAndGlyphs" textLength="117" x="298" y="572.5669">transforms former</text><text fill="#000000" font-family="sans-serif" font-size="13" lengthAdjust="spacingAndGlyphs" textLength="171" x="298" y="587.6997">read Sereco product result</text><!--link SecHubReportData to SecHubReportModel--><path d="M538.1,310.29 C537.29,349.15 536.13,404.72 535.48,435.76 " fill="none" id="SecHubReportData-SecHubReportModel" style="stroke: #A80036; stroke-width: 1.0; stroke-dasharray: 7.0,7.0;"/><polygon fill="none" points="531.1,310.01,538.52,290.16,545.1,310.3,531.1,310.01" style="stroke: #A80036; stroke-width: 1.0;"/><!--link SecHubReportModel to ReportTransformationResult--><path d="M573.58,498.11 C591.8,515.63 612.97,535.99 628.87,551.29 " fill="none" id="SecHubReportModel-ReportTransformationResult" style="stroke: #A80036; stroke-width: 1.0;"/><polygon fill="none" points="568.73,503.15,559.16,484.24,578.43,493.06,568.73,503.15" style="stroke: #A80036; stroke-width: 1.0;"/><!--link ScanService to CreateScanReportService--><path d="M571,56.22 C571,72.48 571,94.32 571,111.62 " fill="none" id="ScanService-CreateScanReportService" style="stroke: #000000; stroke-width: 2.0;"/><polygon fill="#000000" points="571,116.83,575,107.83,571,111.83,567,107.83,571,116.83" style="stroke: #000000; stroke-width: 1.0;"/><text fill="#000000" font-family="sans-serif" font-size="13" lengthAdjust="spacingAndGlyphs" textLength="30" x="537.1563" y="105.7985">uses</text><!--link CreateScanReportService to SerecoProductExecutor--><path d="M474.79,150.85 C356.79,163.74 166.44,191.79 118,242 C94.7,266.15 91.81,306.37 93,333.52 " fill="none" id="CreateScanReportService-SerecoProductExecutor" style="stroke: #008000; stroke-width: 3.0; stroke-dasharray: 7.0,7.0;"/><polygon fill="#008000" points="93.28,338.77,96.7848,329.5659,93.0082,333.7774,88.7967,330.0008,93.28,338.77" style="stroke: #008000; stroke-width: 1.0;"/><text fill="#000000" font-family="sans-serif" font-size="13" lengthAdjust="spacingAndGlyphs" textLength="18" x="217" y="208.0669">[1]</text><text fill="#000000" font-family="sans-serif" font-size="13" lengthAdjust="spacingAndGlyphs" textLength="37" x="51.1076" y="328.1189">starts</text><!--link CreateScanReportService to SecHubReportProductTransformerService--><path d="M516.64,165.14 C466.59,186.44 392.51,217.97 341.02,239.88 " fill="none" id="CreateScanReportService-SecHubReportProductTransformerService" style="stroke: #0000FF; stroke-width: 3.0; stroke-dasharray: 7.0,7.0;"/><polygon fill="#0000FF" points="336.11,241.97,345.9576,242.1272,340.7109,240.0125,342.8256,234.7658,336.11,241.97" style="stroke: #0000FF; stroke-width: 1.0;"/><text fill="#000000" font-family="sans-serif" font-size="13" lengthAdjust="spacingAndGlyphs" textLength="18" x="445" y="208.0669">[2]</text><text fill="#000000" font-family="sans-serif" font-size="13" lengthAdjust="spacingAndGlyphs" textLength="30" x="316.1319" y="230.9743">uses</text><!--link CreateScanReportService to ScanReport--><path d="M647.73,165.01 C664.4,172.6 680.92,182.43 694,195 C728.16,227.83 749.51,278.21 761.47,315.05 " fill="none" id="CreateScanReportService-ScanReport" style="stroke: #FF7F50; stroke-width: 3.0; stroke-dasharray: 7.0,7.0;"/><polygon fill="#FF7F50" points="763.02,319.93,764.075,310.1378,761.4904,315.1697,756.4585,312.5851,763.02,319.93" style="stroke: #FF7F50; stroke-width: 1.0;"/><text fill="#000000" font-family="sans-serif" font-size="13" lengthAdjust="spacingAndGlyphs" textLength="18" x="709" y="208.0669">[3]</text><text fill="#000000" font-family="sans-serif" font-size="13" lengthAdjust="spacingAndGlyphs" textLength="48" x="709.4451" y="308.9149">creates</text><!--link SecHubReportProductTransformerService to SerecoResultTransformer--><path d="M282,290.16 C282,325.33 282,392.15 282,430.34 " fill="none" id="SecHubReportProductTransformerService-SerecoResultTransformer" style="stroke: #0000FF; stroke-width: 1.0; stroke-dasharray: 7.0,7.0;"/><polygon fill="#0000FF" points="282,435.76,286,426.76,282,430.76,278,426.76,282,435.76" style="stroke: #0000FF; stroke-width: 1.0;"/><text fill="#000000" font-family="sans-serif" font-size="13" lengthAdjust="spacingAndGlyphs" textLength="30" x="248.3438" y="425.1065">uses</text><!--link ScanReport to ReportTransformationResult--><path d="M747.48,417.69 C732.56,446.92 713.14,483.45 694,515 C686.52,527.33 677.48,540.59 669.8,551.46 " fill="none" id="ScanReport-ReportTransformationResult" style="stroke: #A80036; stroke-width: 1.0; stroke-dasharray: 7.0,7.0;"/><polygon fill="#FFFFFF" points="753.37,406.06,747.0897,409.6038,747.9454,416.7639,754.2257,413.2202,753.37,406.06" style="stroke: #A80036; stroke-width: 1.0;"/><!--link CreateScanReportService to ReportTransformationResult--><path d="M592.68,169.26 C606.6,188.43 623.59,215.31 632,242 C667.13,353.43 659.9,496.03 655.28,551.23 " fill="none" id="CreateScanReportService-ReportTransformationResult" style="stroke: #0000FF; stroke-width: 1.0; stroke-dasharray: 7.0,7.0;"/><polygon fill="#0000FF" points="589.58,165.05,591.6811,174.6721,592.5387,169.0807,598.1301,169.9382,589.58,165.05" style="stroke: #0000FF; stroke-width: 1.0;"/><!--link SerecoProductExecutor to ProductResult--><path d="M98.99,387.33 C103.74,424.36 113.03,496.8 118.56,539.89 " fill="none" id="SerecoProductExecutor-ProductResult" style="stroke: #008000; stroke-width: 3.0; stroke-dasharray: 7.0,7.0;"/><polygon fill="#008000" points="119.22,545,122.0328,535.5613,118.5788,540.0413,114.0988,536.5873,119.22,545" style="stroke: #008000; stroke-width: 1.0;"/><text fill="#000000" font-family="sans-serif" font-size="13" lengthAdjust="spacingAndGlyphs" textLength="48" x="65.1431" y="533.7903">creates</text><!--link SerecoResultTransformer to ProductResult--><path d="M249.44,484.24 C226.16,500.86 194.5,523.46 168.69,541.89 " fill="none" id="SerecoResultTransformer-ProductResult" style="stroke: #0000FF; stroke-width: 1.0; stroke-dasharray: 7.0,7.0;"/><polygon fill="#0000FF" points="164.6,544.81,174.2479,542.8306,168.6677,541.9025,169.5958,536.3223,164.6,544.81" style="stroke: #0000FF; stroke-width: 1.0;"/><text fill="#000000" font-family="sans-serif" font-size="13" lengthAdjust="spacingAndGlyphs" textLength="36" x="133.4675" y="534.034">reads</text><!--link SerecoResultTransformer to N2--><path d="M303.71,484.24 C322.1,503.94 348.34,532.03 366.64,551.63 " fill="none" id="SerecoResultTransformer-N2" style="stroke: #0000FF; stroke-width: 1.0; stroke-dasharray: 7.0,7.0;"/><polygon fill="#0000FF" points="370.19,555.43,366.9721,546.1217,366.7779,551.7752,361.1244,551.581,370.19,555.43" style="stroke: #0000FF; stroke-width: 1.0;"/><!--link N2 to ReportTransformationResult--><path d="M484.01,575.5 C503.89,575.5 523.77,575.5 543.65,575.5 " fill="none" id="N2-ReportTransformationResult" style="stroke: #0000FF; stroke-width: 1.0; stroke-dasharray: 7.0,7.0;"/><polygon fill="#0000FF" points="548.7,575.5,539.7,571.5,543.7,575.5,539.7,579.5,548.7,575.5" style="stroke: #0000FF; stroke-width: 1.0;"/><text fill="#000000" font-family="sans-serif" font-size="13" lengthAdjust="spacingAndGlyphs" textLength="37" x="503.8331" y="572.0907">builds</text><!--
@startuml

interface SecHubReportData

class SecHubReportModel implements SecHubReportData
class ReportTransformationResult extends SecHubReportModel

class SerecoProductExecutor


class ScanService

class ProductResult {
    String: productIdentifier
}

class SerecoResultTransformer
class CreateScanReportService
class ScanReport {
    <<Entity>>
    String result
    ScanReportResultType type
}
ScanService -[#black,plain,thickness=2]-> "uses" CreateScanReportService
CreateScanReportService -[#green,dashed,thickness=3]-> "starts" SerecoProductExecutor : [1]
CreateScanReportService -[#blue,dashed,thickness=3]-> "uses" SecHubReportProductTransformerService : [2]
CreateScanReportService -[#Coral,dashed,thickness=3]-> "creates" ScanReport : [3]

SecHubReportProductTransformerService -[#blue,dashed,thickness=1]-> "uses" SerecoResultTransformer

ScanReport o..  ReportTransformationResult


CreateScanReportService <-[#blue,dashed,thickness=1]- ReportTransformationResult

SerecoProductExecutor .[#green,dashed,thickness=3].> "creates" ProductResult


note "transforms former\nread Sereco product result" as N2 #CornflowerBlue

SerecoResultTransformer -[#blue,dashed,thickness=1]-> "reads" ProductResult
SerecoResultTransformer -[#blue,dashed,thickness=1]-> N2
N2 -[#blue,dashed,thickness=1]> "builds" ReportTransformationResult

@enduml

PlantUML version 1.2018.13(Mon Nov 26 17:11:51 UTC 2018)
(APACHE source distribution)
Java Runtime: OpenJDK Runtime Environment
JVM: OpenJDK 64-Bit Server VM
Java Version: 1.8.0_292-b10
Operating System: Linux
OS Version: 5.8.0-1042-azure
Default Encoding: UTF-8
Language: en
Country: 
--></g></svg>