<?xml version="1.0" encoding="UTF-8" standalone="no"?><svg xmlns="http://www.w3.org/2000/svg" xmlns:xlink="http://www.w3.org/1999/xlink" contentScriptType="application/ecmascript" contentStyleType="text/css" height="429px" preserveAspectRatio="none" style="width:512px;height:429px;" version="1.1" viewBox="0 0 512 429" width="512px" zoomAndPan="magnify"><defs><filter height="300%" id="f12s7j7ba69fjt" width="300%" x="-1" y="-1"><feGaussianBlur result="blurOut" stdDeviation="2.0"/><feColorMatrix in="blurOut" result="blurOut2" type="matrix" values="0 0 0 0 0 0 0 0 0 0 0 0 0 0 0 0 0 0 .4 0"/><feOffset dx="4.0" dy="4.0" in="blurOut2" result="blurOut3"/><feBlend in="SourceGraphic" in2="blurOut3" mode="normal"/></filter></defs><g><!--class SecHubReportData--><rect fill="#FEFECE" filter="url(#f12s7j7ba69fjt)" height="48" id="SecHubReportData" style="stroke: #A80036; stroke-width: 1.5;" width="152" x="349.89" y="116"/><ellipse cx="364.89" cy="132" fill="#B4A7E5" rx="11" ry="11" style="stroke: #A80036; stroke-width: 1.0;"/><path d="M360.8119,127.7656 L360.8119,125.6094 L368.2025,125.6094 L368.2025,127.7656 L365.7338,127.7656 L365.7338,135.8438 L368.2025,135.8438 L368.2025,138 L360.8119,138 L360.8119,135.8438 L363.2806,135.8438 L363.2806,127.7656 L360.8119,127.7656 Z "/><text fill="#000000" font-family="sans-serif" font-size="12" font-style="italic" lengthAdjust="spacingAndGlyphs" textLength="120" x="378.89" y="136.1543">SecHubReportData</text><line style="stroke: #A80036; stroke-width: 1.5;" x1="350.89" x2="500.89" y1="148" y2="148"/><line style="stroke: #A80036; stroke-width: 1.5;" x1="350.89" x2="500.89" y1="156" y2="156"/><!--class ScanSecHubReport--><rect fill="#FEFECE" filter="url(#f12s7j7ba69fjt)" height="48" id="ScanSecHubReport" style="stroke: #A80036; stroke-width: 1.5;" width="153" x="220.39" y="243"/><ellipse cx="235.39" cy="259" fill="#ADD1B2" rx="11" ry="11" style="stroke: #A80036; stroke-width: 1.0;"/><path d="M238.3588,264.6406 Q237.7806,264.9375 237.14,265.0781 Q236.4994,265.2344 235.7963,265.2344 Q233.2963,265.2344 231.9681,263.5938 Q230.6556,261.9375 230.6556,258.8125 Q230.6556,255.6875 231.9681,254.0313 Q233.2963,252.375 235.7963,252.375 Q236.4994,252.375 237.14,252.5313 Q237.7963,252.6875 238.3588,252.9844 L238.3588,255.7031 Q237.7338,255.125 237.14,254.8594 Q236.5463,254.5781 235.9213,254.5781 Q234.5775,254.5781 233.89,255.6563 Q233.2025,256.7188 233.2025,258.8125 Q233.2025,260.9063 233.89,261.9844 Q234.5775,263.0469 235.9213,263.0469 Q236.5463,263.0469 237.14,262.7813 Q237.7338,262.5 238.3588,261.9219 L238.3588,264.6406 Z "/><text fill="#000000" font-family="sans-serif" font-size="12" lengthAdjust="spacingAndGlyphs" textLength="121" x="249.39" y="263.1543">ScanSecHubReport</text><line style="stroke: #A80036; stroke-width: 1.5;" x1="221.39" x2="372.39" y1="275" y2="275"/><line style="stroke: #A80036; stroke-width: 1.5;" x1="221.39" x2="372.39" y1="283" y2="283"/><!--class SecHubReportModel--><rect fill="#FEFECE" filter="url(#f12s7j7ba69fjt)" height="48" id="SecHubReportModel" style="stroke: #A80036; stroke-width: 1.5;" width="159" x="217.39" y="370"/><ellipse cx="232.39" cy="386" fill="#ADD1B2" rx="11" ry="11" style="stroke: #A80036; stroke-width: 1.0;"/><path d="M235.3588,391.6406 Q234.7806,391.9375 234.14,392.0781 Q233.4994,392.2344 232.7963,392.2344 Q230.2963,392.2344 228.9681,390.5938 Q227.6556,388.9375 227.6556,385.8125 Q227.6556,382.6875 228.9681,381.0313 Q230.2963,379.375 232.7963,379.375 Q233.4994,379.375 234.14,379.5313 Q234.7963,379.6875 235.3588,379.9844 L235.3588,382.7031 Q234.7338,382.125 234.14,381.8594 Q233.5463,381.5781 232.9213,381.5781 Q231.5775,381.5781 230.89,382.6563 Q230.2025,383.7188 230.2025,385.8125 Q230.2025,387.9063 230.89,388.9844 Q231.5775,390.0469 232.9213,390.0469 Q233.5463,390.0469 234.14,389.7813 Q234.7338,389.5 235.3588,388.9219 L235.3588,391.6406 Z "/><text fill="#000000" font-family="sans-serif" font-size="12" lengthAdjust="spacingAndGlyphs" textLength="127" x="246.39" y="390.1543">SecHubReportModel</text><line style="stroke: #A80036; stroke-width: 1.5;" x1="218.39" x2="375.39" y1="402" y2="402"/><line style="stroke: #A80036; stroke-width: 1.5;" x1="218.39" x2="375.39" y1="410" y2="410"/><!--class ScanReport--><rect fill="#FEFECE" filter="url(#f12s7j7ba69fjt)" height="86.4141" id="ScanReport" style="stroke: #A80036; stroke-width: 1.5;" width="167" x="18.39" y="224"/><ellipse cx="61.29" cy="240" fill="#ADD1B2" rx="11" ry="11" style="stroke: #A80036; stroke-width: 1.0;"/><path d="M64.2587,245.6406 Q63.6806,245.9375 63.04,246.0781 Q62.3994,246.2344 61.6963,246.2344 Q59.1963,246.2344 57.8681,244.5938 Q56.5556,242.9375 56.5556,239.8125 Q56.5556,236.6875 57.8681,235.0313 Q59.1963,233.375 61.6963,233.375 Q62.3994,233.375 63.04,233.5313 Q63.6963,233.6875 64.2587,233.9844 L64.2587,236.7031 Q63.6338,236.125 63.04,235.8594 Q62.4463,235.5781 61.8213,235.5781 Q60.4775,235.5781 59.79,236.6563 Q59.1025,237.7188 59.1025,239.8125 Q59.1025,241.9063 59.79,242.9844 Q60.4775,244.0469 61.8213,244.0469 Q62.4463,244.0469 63.04,243.7813 Q63.6338,243.5 64.2587,242.9219 L64.2587,245.6406 Z "/><text fill="#000000" font-family="sans-serif" font-size="12" lengthAdjust="spacingAndGlyphs" textLength="73" x="81.49" y="244.1543">ScanReport</text><line style="stroke: #A80036; stroke-width: 1.5;" x1="19.39" x2="184.39" y1="256" y2="256"/><text fill="#000000" font-family="sans-serif" font-size="11" lengthAdjust="spacingAndGlyphs" textLength="45" x="24.39" y="270.2104">«Entity»</text><text fill="#000000" font-family="sans-serif" font-size="11" lengthAdjust="spacingAndGlyphs" textLength="71" x="24.39" y="283.0151">String result</text><text fill="#000000" font-family="sans-serif" font-size="11" lengthAdjust="spacingAndGlyphs" textLength="155" x="24.39" y="295.8198">ScanReportResultType type</text><line style="stroke: #A80036; stroke-width: 1.5;" x1="19.39" x2="184.39" y1="302.4141" y2="302.4141"/><!--class ScanReportRestController--><rect fill="#FEFECE" filter="url(#f12s7j7ba69fjt)" height="48" id="ScanReportRestController" style="stroke: #A80036; stroke-width: 1.5;" width="194" x="119.89" y="8"/><ellipse cx="134.89" cy="24" fill="#ADD1B2" rx="11" ry="11" style="stroke: #A80036; stroke-width: 1.0;"/><path d="M137.8588,29.6406 Q137.2806,29.9375 136.64,30.0781 Q135.9994,30.2344 135.2963,30.2344 Q132.7963,30.2344 131.4681,28.5938 Q130.1556,26.9375 130.1556,23.8125 Q130.1556,20.6875 131.4681,19.0313 Q132.7963,17.375 135.2963,17.375 Q135.9994,17.375 136.64,17.5313 Q137.2963,17.6875 137.8588,17.9844 L137.8588,20.7031 Q137.2338,20.125 136.64,19.8594 Q136.0463,19.5781 135.4213,19.5781 Q134.0775,19.5781 133.39,20.6563 Q132.7025,21.7188 132.7025,23.8125 Q132.7025,25.9063 133.39,26.9844 Q134.0775,28.0469 135.4213,28.0469 Q136.0463,28.0469 136.64,27.7813 Q137.2338,27.5 137.8588,26.9219 L137.8588,29.6406 Z "/><text fill="#000000" font-family="sans-serif" font-size="12" lengthAdjust="spacingAndGlyphs" textLength="162" x="148.89" y="28.1543">ScanReportRestController</text><line style="stroke: #A80036; stroke-width: 1.5;" x1="120.89" x2="312.89" y1="40" y2="40"/><line style="stroke: #A80036; stroke-width: 1.5;" x1="120.89" x2="312.89" y1="48" y2="48"/><!--class DownloadScanReportService--><rect fill="#FEFECE" filter="url(#f12s7j7ba69fjt)" height="48" id="DownloadScanReportService" style="stroke: #A80036; stroke-width: 1.5;" width="211" x="32.39" y="116"/><ellipse cx="47.39" cy="132" fill="#ADD1B2" rx="11" ry="11" style="stroke: #A80036; stroke-width: 1.0;"/><path d="M50.3588,137.6406 Q49.7806,137.9375 49.14,138.0781 Q48.4994,138.2344 47.7963,138.2344 Q45.2963,138.2344 43.9681,136.5938 Q42.6556,134.9375 42.6556,131.8125 Q42.6556,128.6875 43.9681,127.0313 Q45.2963,125.375 47.7963,125.375 Q48.4994,125.375 49.14,125.5313 Q49.7963,125.6875 50.3588,125.9844 L50.3588,128.7031 Q49.7338,128.125 49.14,127.8594 Q48.5463,127.5781 47.9213,127.5781 Q46.5775,127.5781 45.89,128.6563 Q45.2025,129.7188 45.2025,131.8125 Q45.2025,133.9063 45.89,134.9844 Q46.5775,136.0469 47.9213,136.0469 Q48.5463,136.0469 49.14,135.7813 Q49.7338,135.5 50.3588,134.9219 L50.3588,137.6406 Z "/><text fill="#000000" font-family="sans-serif" font-size="12" lengthAdjust="spacingAndGlyphs" textLength="179" x="61.39" y="136.1543">DownloadScanReportService</text><line style="stroke: #A80036; stroke-width: 1.5;" x1="33.39" x2="242.39" y1="148" y2="148"/><line style="stroke: #A80036; stroke-width: 1.5;" x1="33.39" x2="242.39" y1="156" y2="156"/><!--link SecHubReportData to ScanSecHubReport--><path d="M387.5,178.2 C365.83,199.2 339.42,224.79 320.72,242.91 " fill="none" id="SecHubReportData-ScanSecHubReport" style="stroke: #A80036; stroke-width: 1.0; stroke-dasharray: 7.0,7.0;"/><polygon fill="none" points="382.69,173.11,401.93,164.22,392.44,183.16,382.69,173.11" style="stroke: #A80036; stroke-width: 1.0;"/><!--link SecHubReportData to SecHubReportModel--><path d="M424.43,184.31 C421.53,220.15 413.37,271.26 390.89,310 C376.79,334.29 353.03,355.18 332.93,369.92 " fill="none" id="SecHubReportData-SecHubReportModel" style="stroke: #A80036; stroke-width: 1.0; stroke-dasharray: 7.0,7.0;"/><polygon fill="none" points="417.45,183.77,425.64,164.22,431.43,184.61,417.45,183.77" style="stroke: #A80036; stroke-width: 1.0;"/><!--link ScanReportRestController to ScanSecHubReport--><path d="M233.99,60.96 C243.01,76.68 253.68,96.92 260.89,116 C277.32,159.46 288.02,212.91 293.2,242.85 " fill="none" id="ScanReportRestController-ScanSecHubReport" style="stroke: #008000; stroke-width: 2.0; stroke-dasharray: 7.0,7.0;"/><polygon fill="#008000" points="231.24,56.23,232.3016,66.0215,233.7514,60.5535,239.2193,62.0033,231.24,56.23" style="stroke: #008000; stroke-width: 1.0;"/><!--link ScanReportRestController to DownloadScanReportService--><path d="M199.75,56 C187.62,72.28 171.29,94.19 158.45,111.41 " fill="none" id="ScanReportRestController-DownloadScanReportService" style="stroke: #0000FF; stroke-width: 2.0; stroke-dasharray: 7.0,7.0;"/><polygon fill="#0000FF" points="155.27,115.68,163.87,110.88,158.27,111.68,157.47,106.08,155.27,115.68" style="stroke: #0000FF; stroke-width: 1.0;"/><text fill="#000000" font-family="sans-serif" font-size="13" lengthAdjust="spacingAndGlyphs" textLength="28" x="128.0939" y="105.007">calls</text><!--link DownloadScanReportService to ScanReport--><path d="M131.2,164.22 C126.8,179.51 120.87,200.09 115.5,218.73 " fill="none" id="DownloadScanReportService-ScanReport" style="stroke: #0000FF; stroke-width: 2.0; stroke-dasharray: 7.0,7.0;"/><polygon fill="#0000FF" points="114,223.94,120.3393,216.4026,115.3868,219.1362,112.6532,214.1837,114,223.94" style="stroke: #0000FF; stroke-width: 1.0;"/><text fill="#000000" font-family="sans-serif" font-size="13" lengthAdjust="spacingAndGlyphs" textLength="93" x="15.5191" y="212.9265">reads from DB</text><!--link DownloadScanReportService to ScanSecHubReport--><path d="M167.42,164.22 C194.64,185.62 235.01,217.35 263.41,239.68 " fill="none" id="DownloadScanReportService-ScanSecHubReport" style="stroke: #008000; stroke-width: 2.0; stroke-dasharray: 7.0,7.0;"/><polygon fill="#008000" points="267.51,242.91,262.903,234.2051,263.5779,239.8215,257.9615,240.4964,267.51,242.91" style="stroke: #008000; stroke-width: 1.0;"/><text fill="#000000" font-family="sans-serif" font-size="13" lengthAdjust="spacingAndGlyphs" textLength="48" x="205.8314" y="231.899">creates</text><!--link ScanReport to SecHubReportModel--><path d="M167.64,310.15 C198.82,330.13 234.86,353.24 260.95,369.96 " fill="none" id="ScanReport-SecHubReportModel" style="stroke: #A80036; stroke-width: 1.0; stroke-dasharray: 7.0,7.0;"/><!--link ScanSecHubReport to SecHubReportModel--><path d="M296.89,304.29 C296.89,325.46 296.89,351.52 296.89,369.91 " fill="none" id="ScanSecHubReport-SecHubReportModel" style="stroke: #A80036; stroke-width: 1.0;"/><polygon fill="#FFFFFF" points="296.89,291.22,292.89,297.22,296.89,303.22,300.89,297.22,296.89,291.22" style="stroke: #A80036; stroke-width: 1.0;"/><!--
@startuml

interface SecHubReportData

class ScanSecHubReport implements SecHubReportData

class SecHubReportModel implements SecHubReportData

class ScanReport {
    <<Entity>>
    String result
    ScanReportResultType type
}

ScanReportRestController <-[#green,dashed,thickness=2]-  ScanSecHubReport
ScanReportRestController -[#blue,dashed,thickness=2]-> "calls" DownloadScanReportService
DownloadScanReportService -[#blue,dashed,thickness=2]-> "reads from DB" ScanReport
DownloadScanReportService -[#green,dashed,thickness=2]-> "creates" ScanSecHubReport

ScanReport ..  SecHubReportModel
ScanSecHubReport o- - SecHubReportModel

@enduml

PlantUML version 1.2018.13(Mon Nov 26 17:11:51 UTC 2018)
(APACHE source distribution)
Java Runtime: OpenJDK Runtime Environment
JVM: OpenJDK 64-Bit Server VM
Java Version: 1.8.0_292-b10
Operating System: Linux
OS Version: 5.8.0-1042-azure
Default Encoding: UTF-8
Language: en
Country: 
--></g></svg>