<?xml version="1.0" encoding="UTF-8" standalone="no"?><svg xmlns="http://www.w3.org/2000/svg" xmlns:xlink="http://www.w3.org/1999/xlink" contentScriptType="application/ecmascript" contentStyleType="text/css" height="230px" preserveAspectRatio="none" style="width:2448px;height:230px;" version="1.1" viewBox="0 0 2448 230" width="2448px" zoomAndPan="magnify"><defs><filter height="300%" id="feaefmp4e64uw" width="300%" x="-1" y="-1"><feGaussianBlur result="blurOut" stdDeviation="2.0"/><feColorMatrix in="blurOut" result="blurOut2" type="matrix" values="0 0 0 0 0 0 0 0 0 0 0 0 0 0 0 0 0 0 .4 0"/><feOffset dx="4.0" dy="4.0" in="blurOut2" result="blurOut3"/><feBlend in="SourceGraphic" in2="blurOut3" mode="normal"/></filter></defs><g><!--entity mocked_notifications--><polygon fill="#FEFECE" filter="url(#feaefmp4e64uw)" points="182.5,76,192.5,66,368.5,66,368.5,102.2969,358.5,112.2969,182.5,112.2969,182.5,76" style="stroke: #000000; stroke-width: 1.5;"/><line style="stroke: #000000; stroke-width: 1.5;" x1="358.5" x2="367.5" y1="76" y2="67"/><line style="stroke: #000000; stroke-width: 1.5;" x1="182.5" x2="358.5" y1="76" y2="76"/><line style="stroke: #000000; stroke-width: 1.5;" x1="358.5" x2="358.5" y1="76" y2="112.2969"/><text fill="#000000" font-family="sans-serif" font-size="14" lengthAdjust="spacingAndGlyphs" textLength="146" x="197.5" y="98.9951">mocked_notifications</text><!--entity server--><polygon fill="#FEFECE" filter="url(#feaefmp4e64uw)" points="1375,76,1385,66,1458,66,1458,102.2969,1448,112.2969,1375,112.2969,1375,76" style="stroke: #000000; stroke-width: 1.5;"/><line style="stroke: #000000; stroke-width: 1.5;" x1="1448" x2="1457" y1="76" y2="67"/><line style="stroke: #000000; stroke-width: 1.5;" x1="1375" x2="1448" y1="76" y2="76"/><line style="stroke: #000000; stroke-width: 1.5;" x1="1448" x2="1448" y1="76" y2="112.2969"/><text fill="#000000" font-family="sans-serif" font-size="14" lengthAdjust="spacingAndGlyphs" textLength="43" x="1390" y="98.9951">server</text><!--entity admin_access--><polygon fill="#FEFECE" filter="url(#feaefmp4e64uw)" points="945.5,76,955.5,66,1083.5,66,1083.5,102.2969,1073.5,112.2969,945.5,112.2969,945.5,76" style="stroke: #000000; stroke-width: 1.5;"/><line style="stroke: #000000; stroke-width: 1.5;" x1="1073.5" x2="1082.5" y1="76" y2="67"/><line style="stroke: #000000; stroke-width: 1.5;" x1="945.5" x2="1073.5" y1="76" y2="76"/><line style="stroke: #000000; stroke-width: 1.5;" x1="1073.5" x2="1073.5" y1="76" y2="112.2969"/><text fill="#000000" font-family="sans-serif" font-size="14" lengthAdjust="spacingAndGlyphs" textLength="98" x="960.5" y="98.9951">admin_access</text><!--entity integrationtest--><polygon fill="#FEFECE" filter="url(#feaefmp4e64uw)" points="6,76,16,66,147,66,147,102.2969,137,112.2969,6,112.2969,6,76" style="stroke: #000000; stroke-width: 1.5;"/><line style="stroke: #000000; stroke-width: 1.5;" x1="137" x2="146" y1="76" y2="67"/><line style="stroke: #000000; stroke-width: 1.5;" x1="6" x2="137" y1="76" y2="76"/><line style="stroke: #000000; stroke-width: 1.5;" x1="137" x2="137" y1="76" y2="112.2969"/><text fill="#000000" font-family="sans-serif" font-size="14" lengthAdjust="spacingAndGlyphs" textLength="101" x="21" y="98.9951">integrationtest</text><!--entity initial_admin_predefined--><polygon fill="#FEFECE" filter="url(#feaefmp4e64uw)" points="705,76,715,66,910,66,910,102.2969,900,112.2969,705,112.2969,705,76" style="stroke: #000000; stroke-width: 1.5;"/><line style="stroke: #000000; stroke-width: 1.5;" x1="900" x2="909" y1="76" y2="67"/><line style="stroke: #000000; stroke-width: 1.5;" x1="705" x2="900" y1="76" y2="76"/><line style="stroke: #000000; stroke-width: 1.5;" x1="900" x2="900" y1="76" y2="112.2969"/><text fill="#000000" font-family="sans-serif" font-size="14" lengthAdjust="spacingAndGlyphs" textLength="165" x="720" y="98.9951">initial_admin_predefined</text><!--entity debug--><polygon fill="#FEFECE" filter="url(#feaefmp4e64uw)" points="2019,76,2029,66,2104,66,2104,102.2969,2094,112.2969,2019,112.2969,2019,76" style="stroke: #000000; stroke-width: 1.5;"/><line style="stroke: #000000; stroke-width: 1.5;" x1="2094" x2="2103" y1="76" y2="67"/><line style="stroke: #000000; stroke-width: 1.5;" x1="2019" x2="2094" y1="76" y2="76"/><line style="stroke: #000000; stroke-width: 1.5;" x1="2094" x2="2094" y1="76" y2="112.2969"/><text fill="#000000" font-family="sans-serif" font-size="14" lengthAdjust="spacingAndGlyphs" textLength="45" x="2034" y="98.9951">debug</text><!--entity localserver--><polygon fill="#FEFECE" filter="url(#feaefmp4e64uw)" points="1118.5,76,1128.5,66,1232.5,66,1232.5,102.2969,1222.5,112.2969,1118.5,112.2969,1118.5,76" style="stroke: #000000; stroke-width: 1.5;"/><line style="stroke: #000000; stroke-width: 1.5;" x1="1222.5" x2="1231.5" y1="76" y2="67"/><line style="stroke: #000000; stroke-width: 1.5;" x1="1118.5" x2="1222.5" y1="76" y2="76"/><line style="stroke: #000000; stroke-width: 1.5;" x1="1222.5" x2="1222.5" y1="76" y2="112.2969"/><text fill="#000000" font-family="sans-serif" font-size="14" lengthAdjust="spacingAndGlyphs" textLength="74" x="1133.5" y="98.9951">localserver</text><!--entity dev--><polygon fill="#FEFECE" filter="url(#feaefmp4e64uw)" points="605,76,615,66,670,66,670,102.2969,660,112.2969,605,112.2969,605,76" style="stroke: #000000; stroke-width: 1.5;"/><line style="stroke: #000000; stroke-width: 1.5;" x1="660" x2="669" y1="76" y2="67"/><line style="stroke: #000000; stroke-width: 1.5;" x1="605" x2="660" y1="76" y2="76"/><line style="stroke: #000000; stroke-width: 1.5;" x1="660" x2="660" y1="76" y2="112.2969"/><text fill="#000000" font-family="sans-serif" font-size="14" lengthAdjust="spacingAndGlyphs" textLength="25" x="620" y="98.9951">dev</text><!--entity default--><polygon fill="#FEFECE" filter="url(#feaefmp4e64uw)" points="2139,76,2149,66,2226,66,2226,102.2969,2216,112.2969,2139,112.2969,2139,76" style="stroke: #000000; stroke-width: 1.5;"/><line style="stroke: #000000; stroke-width: 1.5;" x1="2216" x2="2225" y1="76" y2="67"/><line style="stroke: #000000; stroke-width: 1.5;" x1="2139" x2="2216" y1="76" y2="76"/><line style="stroke: #000000; stroke-width: 1.5;" x1="2216" x2="2216" y1="76" y2="112.2969"/><text fill="#000000" font-family="sans-serif" font-size="14" lengthAdjust="spacingAndGlyphs" textLength="47" x="2154" y="98.9951">default</text><!--entity real_products--><polygon fill="#FEFECE" filter="url(#feaefmp4e64uw)" points="1493.5,76,1503.5,66,1627.5,66,1627.5,102.2969,1617.5,112.2969,1493.5,112.2969,1493.5,76" style="stroke: #000000; stroke-width: 1.5;"/><line style="stroke: #000000; stroke-width: 1.5;" x1="1617.5" x2="1626.5" y1="76" y2="67"/><line style="stroke: #000000; stroke-width: 1.5;" x1="1493.5" x2="1617.5" y1="76" y2="76"/><line style="stroke: #000000; stroke-width: 1.5;" x1="1617.5" x2="1617.5" y1="76" y2="112.2969"/><text fill="#000000" font-family="sans-serif" font-size="14" lengthAdjust="spacingAndGlyphs" textLength="94" x="1508.5" y="98.9951">real_products</text><!--entity prod--><polygon fill="#FEFECE" filter="url(#feaefmp4e64uw)" points="1267.5,76,1277.5,66,1339.5,66,1339.5,102.2969,1329.5,112.2969,1267.5,112.2969,1267.5,76" style="stroke: #000000; stroke-width: 1.5;"/><line style="stroke: #000000; stroke-width: 1.5;" x1="1329.5" x2="1338.5" y1="76" y2="67"/><line style="stroke: #000000; stroke-width: 1.5;" x1="1267.5" x2="1329.5" y1="76" y2="76"/><line style="stroke: #000000; stroke-width: 1.5;" x1="1329.5" x2="1329.5" y1="76" y2="112.2969"/><text fill="#000000" font-family="sans-serif" font-size="14" lengthAdjust="spacingAndGlyphs" textLength="32" x="1282.5" y="98.9951">prod</text><!--entity initial_admin_static--><polygon fill="#FEFECE" filter="url(#feaefmp4e64uw)" points="403,76,413,66,570,66,570,102.2969,560,112.2969,403,112.2969,403,76" style="stroke: #000000; stroke-width: 1.5;"/><line style="stroke: #000000; stroke-width: 1.5;" x1="560" x2="569" y1="76" y2="67"/><line style="stroke: #000000; stroke-width: 1.5;" x1="403" x2="560" y1="76" y2="76"/><line style="stroke: #000000; stroke-width: 1.5;" x1="560" x2="560" y1="76" y2="112.2969"/><text fill="#000000" font-family="sans-serif" font-size="14" lengthAdjust="spacingAndGlyphs" textLength="127" x="418" y="98.9951">initial_admin_static</text><!--entity postgres--><polygon fill="#FEFECE" filter="url(#feaefmp4e64uw)" points="1881.5,76,1891.5,66,1983.5,66,1983.5,102.2969,1973.5,112.2969,1881.5,112.2969,1881.5,76" style="stroke: #000000; stroke-width: 1.5;"/><line style="stroke: #000000; stroke-width: 1.5;" x1="1973.5" x2="1982.5" y1="76" y2="67"/><line style="stroke: #000000; stroke-width: 1.5;" x1="1881.5" x2="1973.5" y1="76" y2="76"/><line style="stroke: #000000; stroke-width: 1.5;" x1="1973.5" x2="1973.5" y1="76" y2="112.2969"/><text fill="#000000" font-family="sans-serif" font-size="14" lengthAdjust="spacingAndGlyphs" textLength="62" x="1896.5" y="98.9951">postgres</text><!--entity mocked_products--><polygon fill="#FEFECE" filter="url(#feaefmp4e64uw)" points="2261,76,2271,66,2426,66,2426,102.2969,2416,112.2969,2261,112.2969,2261,76" style="stroke: #000000; stroke-width: 1.5;"/><line style="stroke: #000000; stroke-width: 1.5;" x1="2416" x2="2425" y1="76" y2="67"/><line style="stroke: #000000; stroke-width: 1.5;" x1="2261" x2="2416" y1="76" y2="76"/><line style="stroke: #000000; stroke-width: 1.5;" x1="2416" x2="2416" y1="76" y2="112.2969"/><text fill="#000000" font-family="sans-serif" font-size="14" lengthAdjust="spacingAndGlyphs" textLength="125" x="2276" y="98.9951">mocked_products</text><!--entity h2--><polygon fill="#FEFECE" filter="url(#feaefmp4e64uw)" points="2032.5,182,2042.5,172,2090.5,172,2090.5,208.2969,2080.5,218.2969,2032.5,218.2969,2032.5,182" style="stroke: #000000; stroke-width: 1.5;"/><line style="stroke: #000000; stroke-width: 1.5;" x1="2080.5" x2="2089.5" y1="182" y2="173"/><line style="stroke: #000000; stroke-width: 1.5;" x1="2032.5" x2="2080.5" y1="182" y2="182"/><line style="stroke: #000000; stroke-width: 1.5;" x1="2080.5" x2="2080.5" y1="182" y2="218.2969"/><text fill="#000000" font-family="sans-serif" font-size="14" lengthAdjust="spacingAndGlyphs" textLength="18" x="2047.5" y="204.9951">h2</text><!--entity initial_admin_created--><polygon fill="#FEFECE" filter="url(#feaefmp4e64uw)" points="1663,76,1673,66,1846,66,1846,102.2969,1836,112.2969,1663,112.2969,1663,76" style="stroke: #000000; stroke-width: 1.5;"/><line style="stroke: #000000; stroke-width: 1.5;" x1="1836" x2="1845" y1="76" y2="67"/><line style="stroke: #000000; stroke-width: 1.5;" x1="1663" x2="1836" y1="76" y2="76"/><line style="stroke: #000000; stroke-width: 1.5;" x1="1836" x2="1836" y1="76" y2="112.2969"/><text fill="#000000" font-family="sans-serif" font-size="14" lengthAdjust="spacingAndGlyphs" textLength="143" x="1678" y="98.9951">initial_admin_created</text><!--entity test--><polygon fill="#FEFECE" filter="url(#feaefmp4e64uw)" points="2126,182,2136,172,2193,172,2193,208.2969,2183,218.2969,2126,218.2969,2126,182" style="stroke: #000000; stroke-width: 1.5;"/><line style="stroke: #000000; stroke-width: 1.5;" x1="2183" x2="2192" y1="182" y2="173"/><line style="stroke: #000000; stroke-width: 1.5;" x1="2126" x2="2183" y1="182" y2="182"/><line style="stroke: #000000; stroke-width: 1.5;" x1="2183" x2="2183" y1="182" y2="218.2969"/><text fill="#000000" font-family="sans-serif" font-size="14" lengthAdjust="spacingAndGlyphs" textLength="27" x="2141" y="204.9951">test</text><!--link integrationtest to localserver--><path d="M112.36,65.93 C132.3,54.48 158.07,41.86 183,36 C280.45,13.09 987.32,10.02 1084,36 C1104.09,41.4 1124.33,52.41 1140.65,63 " fill="none" id="integrationtest-localserver" style="stroke: #A80036; stroke-width: 1.0;"/><polygon fill="#A80036" points="1145.14,65.97,1139.8572,57.6578,1140.9754,63.2031,1135.4301,64.3213,1145.14,65.97" style="stroke: #A80036; stroke-width: 1.0;"/><!--link integrationtest to initial_admin_static--><path d="M112.36,65.93 C132.3,54.48 158.07,41.86 183,36 C263.47,17.08 288.18,18.62 369,36 C394.33,41.45 420.78,52.81 442.15,63.62 " fill="none" id="integrationtest-initial_admin_static" style="stroke: #A80036; stroke-width: 1.0;"/><polygon fill="#A80036" points="446.64,65.91,440.4474,58.2516,442.1881,63.6339,436.8057,65.3746,446.64,65.91" style="stroke: #A80036; stroke-width: 1.0;"/><!--link integrationtest to mocked_notifications--><path d="M147.24,89 C157.19,89 167.15,89 177.1,89 " fill="none" id="integrationtest-mocked_notifications" style="stroke: #A80036; stroke-width: 1.0;"/><polygon fill="#A80036" points="182.31,89,173.31,85,177.31,89,173.31,93,182.31,89" style="stroke: #A80036; stroke-width: 1.0;"/><!--link integrationtest to admin_access--><path d="M112.36,65.93 C132.3,54.48 158.07,41.86 183,36 C340.27,-0.97 752.87,-1.57 910,36 C932.62,41.41 955.87,52.55 974.68,63.23 " fill="none" id="integrationtest-admin_access" style="stroke: #A80036; stroke-width: 1.0;"/><polygon fill="#A80036" points="979.37,65.94,973.577,57.975,975.0403,63.4393,969.5759,64.9026,979.37,65.94" style="stroke: #A80036; stroke-width: 1.0;"/><!--link dev to localserver--><path d="M659.2,65.8 C671.42,54.46 687.68,41.99 705,36 C784.6,8.48 1002.66,14.14 1084,36 C1104.09,41.4 1124.33,52.41 1140.65,63 " fill="none" id="dev-localserver" style="stroke: #A80036; stroke-width: 1.0;"/><polygon fill="#A80036" points="1145.14,65.97,1139.8572,57.6578,1140.9754,63.2031,1135.4301,64.3213,1145.14,65.97" style="stroke: #A80036; stroke-width: 1.0;"/><!--link dev to initial_admin_predefined--><path d="M670.04,89 C679.95,89 689.85,89 699.76,89 " fill="none" id="dev-initial_admin_predefined" style="stroke: #A80036; stroke-width: 1.0;"/><polygon fill="#A80036" points="704.94,89,695.94,85,699.94,89,695.94,93,704.94,89" style="stroke: #A80036; stroke-width: 1.0;"/><!--link dev to admin_access--><path d="M659.2,65.8 C671.42,54.46 687.68,41.99 705,36 C791.11,6.23 821.39,14.81 910,36 C932.62,41.41 955.87,52.55 974.68,63.23 " fill="none" id="dev-admin_access" style="stroke: #A80036; stroke-width: 1.0;"/><polygon fill="#A80036" points="979.37,65.94,973.577,57.975,975.0403,63.4393,969.5759,64.9026,979.37,65.94" style="stroke: #A80036; stroke-width: 1.0;"/><!--link prod to postgres--><path d="M1326.73,65.77 C1339.74,54.43 1356.95,41.96 1375,36 C1474.39,3.18 1745.26,7.59 1846,36 C1865.21,41.42 1884.37,52.43 1899.75,63.02 " fill="none" id="prod-postgres" style="stroke: #A80036; stroke-width: 1.0;"/><polygon fill="#A80036" points="1903.99,65.99,1898.9127,57.5507,1899.8945,63.1217,1894.3235,64.1035,1903.99,65.99" style="stroke: #A80036; stroke-width: 1.0;"/><!--link prod to initial_admin_created--><path d="M1326.73,65.77 C1339.74,54.43 1356.95,41.96 1375,36 C1481.77,0.74 1517.76,13.84 1628,36 C1655.14,41.46 1683.71,52.89 1706.83,63.74 " fill="none" id="prod-initial_admin_created" style="stroke: #A80036; stroke-width: 1.0;"/><polygon fill="#A80036" points="1711.37,65.9,1704.9548,58.427,1706.8531,63.7559,1701.5242,65.6541,1711.37,65.9" style="stroke: #A80036; stroke-width: 1.0;"/><!--link prod to real_products--><path d="M1326.73,65.77 C1339.74,54.43 1356.95,41.96 1375,36 C1410.03,24.43 1422.16,27.28 1458,36 C1480.25,41.41 1503.07,52.56 1521.51,63.24 " fill="none" id="prod-real_products" style="stroke: #A80036; stroke-width: 1.0;"/><polygon fill="#A80036" points="1526.1,65.94,1520.3893,57.9158,1521.7962,63.3949,1516.3171,64.8019,1526.1,65.94" style="stroke: #A80036; stroke-width: 1.0;"/><!--link prod to server--><path d="M1339.7,89 C1349.66,89 1359.62,89 1369.59,89 " fill="none" id="prod-server" style="stroke: #A80036; stroke-width: 1.0;"/><polygon fill="#A80036" points="1374.8,89,1365.8,85,1369.8,89,1365.8,93,1374.8,89" style="stroke: #A80036; stroke-width: 1.0;"/><!--link debug to default--><!--link default to mocked_products--><!--link debug to h2--><!--link h2 to test--><!--
@startuml
node mocked_notifications
node server
node admin_access
node integrationtest
node initial_admin_predefined
node debug
node localserver
node dev
node default
node real_products
node prod
node initial_admin_static
node postgres
node mocked_products
node h2
node initial_admin_created
node test
integrationtest -> localserver
integrationtest -> initial_admin_static
integrationtest -> mocked_notifications
integrationtest -> admin_access
dev -> localserver
dev -> initial_admin_predefined
dev -> admin_access
prod -> postgres
prod -> initial_admin_created
prod -> real_products
prod -> server
@enduml

PlantUML version 1.2018.13(Mon Nov 26 17:11:51 UTC 2018)
(APACHE source distribution)
Java Runtime: OpenJDK Runtime Environment
JVM: OpenJDK 64-Bit Server VM
Java Version: 1.8.0_292-b10
Operating System: Linux
OS Version: 5.8.0-1042-azure
Default Encoding: UTF-8
Language: en
Country: 
--></g></svg>